# xmcd
#
# Track frame offsets: 
#        150
#        15677
#        29715
#        45327
#        58722
#        74242
#        88587
#        104322
#        118165
#        132532
#        148020
#        163240
#        177602
#        190722
#        205637
#        218992
#        233052
#        247527
#        261240
#        276412
#        291890
#        304757
#
# Disc length: 4240 seconds
#
# Revision: 0
# Processed by: cddbd v1.5.2PL0 Copyright (c) Steve Scherf et al.
# Submitted via: ExactAudioCopy v1.3
#
DISCID=56108e16
DTITLE=Bessie Smith - Nobody Knows You When You're Down And Out
DYEAR=1900
DGENRE=Blues
TTITLE0=Downhearted Blues
TTITLE1=Gulf Coast Blues
TTITLE2='Tain't Nobody's Business If I Do
TTITLE3=Baby, Won't You Please Come Home
TTITLE4=Any Woman's Blues
TTITLE5=Weeping Willow Blues
TTITLE6=You've Benn A Good Old Wagon
TTITLE7=Reckless Blues
TTITLE8=St. Louis Blues
TTITLE9=Careless Love Blues
TTITLE10=I Ain't Gonna Play No Second Fiddle
TTITLE11=I Ain't Got Nobody
TTITLE12=Lost Your Head Blues
TTITLE13=Backwater Blues
TTITLE14=After You've Gone
TTITLE15=Muddy Water (A Mississippi Moan)
TTITLE16=Mean Old Bedbug Blues
TTITLE17=Empty Bed Blues (Part 1)
TTITLE18=Empty Bed Blues (Part 2)
TTITLE19=Poor Man's Blues
TTITLE20=Me And My Gin
TTITLE21=Nobody Knows You When You're Down And Out
EXTD=
EXTT0=
EXTT1=
EXTT2=
EXTT3=
EXTT4=
EXTT5=
EXTT6=
EXTT7=
EXTT8=
EXTT9=
EXTT10=
EXTT11=
EXTT12=
EXTT13=
EXTT14=
EXTT15=
EXTT16=
EXTT17=
EXTT18=
EXTT19=
EXTT20=
EXTT21=
PLAYORDER=
